# Blender v3.0.1 OBJ File: ''
# www.blender.org
mtllib TreadCollision.mtl
o Cylinder
v 0.621853 -0.022340 -0.280949
v 0.621853 -0.022336 -0.181790
v 0.621853 -0.022332 -0.082632
v 0.621853 -0.022329 0.000000
v 0.621880 -0.019792 -0.632592
v 0.621855 0.002930 -0.742007
v 0.621854 0.050390 -0.824494
v 0.621854 0.142390 -0.875278
v 0.621854 0.217664 -0.892426
v 0.621853 0.889105 -0.892426
v 0.621853 0.217697 0.000000
v 0.621853 0.889138 0.000000
v 0.621853 0.217694 -0.082632
v 0.621853 0.217690 -0.181790
v 0.621853 0.217687 -0.280949
v 0.621853 0.217683 -0.380107
v 0.621853 0.217679 -0.479266
v 0.621853 0.217676 -0.578424
v 0.621854 0.217672 -0.677583
v 0.621854 0.217668 -0.776741
v 0.621853 0.889135 -0.082632
v 0.621853 0.889132 -0.181790
v 0.621853 0.889128 -0.280949
v 0.621853 0.889124 -0.380107
v 0.621853 0.889120 -0.479266
v 0.621853 0.889117 -0.578424
v 0.621853 0.889113 -0.677583
v 0.621853 0.889109 -0.776741
v 0.000000 -0.022329 0.000000
v 0.000000 -0.022332 -0.082632
v 0.000000 -0.022336 -0.181790
v 0.000000 -0.022340 -0.280949
v 0.000000 -0.019792 -0.632592
v 0.000000 0.002930 -0.742007
v 0.000000 0.050390 -0.824494
v 0.000000 0.142390 -0.875278
v 0.000000 0.217664 -0.892426
v 0.000000 0.889105 -0.892426
v -0.000000 0.889138 0.000000
v -0.000000 0.889135 -0.082632
v -0.000000 0.889132 -0.181790
v -0.000000 0.889128 -0.280949
v 0.000000 0.889124 -0.380107
v 0.000000 0.889120 -0.479266
v 0.000000 0.889117 -0.578424
v 0.000000 0.889113 -0.677583
v 0.000000 0.889109 -0.776741
v 0.621853 -0.022343 -0.380107
v 0.621854 -0.022347 -0.479266
v 0.000000 -0.022343 -0.380107
v 0.000000 -0.022347 -0.479266
v 0.621853 -0.022340 0.280949
v 0.621853 -0.022336 0.181791
v 0.621853 -0.022332 0.082632
v 0.621880 -0.019792 0.632593
v 0.621855 0.002930 0.742008
v 0.621853 0.050390 0.824494
v 0.621853 0.142390 0.875278
v 0.621853 0.217664 0.892426
v 0.621853 0.889105 0.892426
v 0.621853 0.217694 0.082632
v 0.621853 0.217690 0.181791
v 0.621853 0.217687 0.280949
v 0.621853 0.217683 0.380107
v 0.621853 0.217679 0.479266
v 0.621853 0.217676 0.578424
v 0.621853 0.217672 0.677583
v 0.621853 0.217668 0.776741
v 0.621853 0.889135 0.082632
v 0.621853 0.889132 0.181791
v 0.621853 0.889128 0.280949
v 0.621853 0.889124 0.380107
v 0.621853 0.889120 0.479266
v 0.621853 0.889117 0.578424
v 0.621853 0.889113 0.677583
v 0.621853 0.889109 0.776741
v 0.000000 -0.022332 0.082632
v -0.000000 -0.022336 0.181790
v -0.000000 -0.022340 0.280949
v -0.000000 -0.019792 0.632592
v -0.000000 0.002930 0.742007
v -0.000000 0.050390 0.824494
v -0.000000 0.142390 0.875278
v -0.000000 0.217664 0.892426
v -0.000000 0.889105 0.892426
v -0.000000 0.889135 0.082632
v -0.000000 0.889132 0.181790
v -0.000000 0.889128 0.280949
v -0.000000 0.889124 0.380107
v -0.000000 0.889120 0.479266
v -0.000000 0.889117 0.578424
v -0.000000 0.889113 0.677583
v -0.000000 0.889109 0.776741
v 0.621853 -0.022343 0.380107
v 0.621853 -0.022347 0.479266
v -0.000000 -0.022343 0.380107
v -0.000000 -0.022347 0.479266
v -0.621853 -0.022340 -0.280949
v -0.621853 -0.022336 -0.181791
v -0.621853 -0.022332 -0.082632
v -0.621853 -0.022329 -0.000000
v -0.621880 -0.019792 -0.632593
v -0.621855 0.002930 -0.742008
v -0.621853 0.050390 -0.824494
v -0.621853 0.142390 -0.875278
v -0.621853 0.217664 -0.892426
v -0.621853 0.889105 -0.892426
v -0.621853 0.217697 -0.000000
v -0.621853 0.889138 -0.000000
v -0.621853 0.217694 -0.082632
v -0.621853 0.217690 -0.181791
v -0.621853 0.217687 -0.280949
v -0.621853 0.217683 -0.380107
v -0.621853 0.217679 -0.479266
v -0.621853 0.217675 -0.578424
v -0.621853 0.217672 -0.677583
v -0.621853 0.217668 -0.776741
v -0.621853 0.889135 -0.082632
v -0.621853 0.889131 -0.181791
v -0.621853 0.889128 -0.280949
v -0.621853 0.889124 -0.380107
v -0.621853 0.889120 -0.479266
v -0.621853 0.889117 -0.578424
v -0.621853 0.889113 -0.677583
v -0.621853 0.889109 -0.776741
v -0.621853 -0.022343 -0.380107
v -0.621853 -0.022347 -0.479266
v -0.621853 -0.022340 0.280949
v -0.621853 -0.022336 0.181790
v -0.621853 -0.022332 0.082632
v -0.621880 -0.019792 0.632592
v -0.621855 0.002930 0.742007
v -0.621854 0.050390 0.824494
v -0.621854 0.142390 0.875278
v -0.621854 0.217664 0.892426
v -0.621854 0.889105 0.892426
v -0.621853 0.217694 0.082632
v -0.621853 0.217690 0.181790
v -0.621853 0.217687 0.280949
v -0.621853 0.217683 0.380107
v -0.621853 0.217679 0.479266
v -0.621853 0.217675 0.578424
v -0.621854 0.217672 0.677583
v -0.621854 0.217668 0.776741
v -0.621853 0.889135 0.082632
v -0.621853 0.889131 0.181790
v -0.621854 0.889128 0.280949
v -0.621854 0.889124 0.380107
v -0.621854 0.889120 0.479266
v -0.621854 0.889117 0.578424
v -0.621854 0.889113 0.677583
v -0.621854 0.889109 0.776741
v -0.621853 -0.022343 0.380107
v -0.621853 -0.022347 0.479266
vt 0.532407 0.000000
vt 0.500000 0.000000
vt 0.500000 0.000000
vt 0.532407 0.000000
vt 0.750000 0.000000
vt 0.726852 0.000000
vt 0.726852 0.000000
vt 0.750000 0.000000
vt 0.699074 0.000000
vt 0.699074 0.000000
vt 0.671296 0.000000
vt 0.671296 0.000000
vt 0.643519 0.000000
vt 0.643519 0.000000
vt 0.615741 0.000000
vt 0.615741 0.000000
vt 0.587963 0.000000
vt 0.587963 0.000000
vt 0.560185 0.000000
vt 0.560185 0.000000
vt 0.671296 0.000000
vt 0.699074 0.000000
vt 0.699074 0.000000
vt 0.671296 0.000000
vt 0.726852 0.000000
vt 0.750000 0.000000
vt 0.643519 0.000000
vt 0.615741 0.000000
vt 0.625000 0.000000
vt 0.593750 0.000000
vt 0.562500 0.000000
vt 0.531250 0.000000
vt 0.532407 0.500000
vt 0.560185 0.500000
vt 0.587963 0.500000
vt 0.615741 0.500000
vt 0.643519 0.500000
vt 0.671296 0.500000
vt 0.699074 0.500000
vt 0.726852 0.500000
vt 0.750000 0.500000
vt 0.500000 0.500000
vt 0.500000 0.500000
vt 0.531250 0.500000
vt 0.562500 0.500000
vt 0.593750 0.500000
vt 0.625000 0.500000
vt 0.643519 0.000000
vt 0.615741 0.000000
vt 0.625000 0.000000
vt 0.726852 0.000000
vt 0.750000 0.000000
vt 0.532407 0.000000
vt 0.532407 0.000000
vt 0.500000 0.000000
vt 0.500000 0.000000
vt 0.726852 0.000000
vt 0.726852 0.000000
vt 0.699074 0.000000
vt 0.699074 0.000000
vt 0.671296 0.000000
vt 0.671296 0.000000
vt 0.643519 0.000000
vt 0.643519 0.000000
vt 0.615741 0.000000
vt 0.615741 0.000000
vt 0.587963 0.000000
vt 0.587963 0.000000
vt 0.560185 0.000000
vt 0.560185 0.000000
vt 0.671296 0.000000
vt 0.671296 0.000000
vt 0.699074 0.000000
vt 0.699074 0.000000
vt 0.726852 0.000000
vt 0.615741 0.000000
vt 0.643519 0.000000
vt 0.625000 0.000000
vt 0.593750 0.000000
vt 0.562500 0.000000
vt 0.531250 0.000000
vt 0.560185 0.500000
vt 0.532407 0.500000
vt 0.587963 0.500000
vt 0.615741 0.500000
vt 0.643519 0.500000
vt 0.671296 0.500000
vt 0.699074 0.500000
vt 0.726852 0.500000
vt 0.500000 0.500000
vt 0.500000 0.500000
vt 0.531250 0.500000
vt 0.562500 0.500000
vt 0.593750 0.500000
vt 0.625000 0.500000
vt 0.643519 0.000000
vt 0.625000 0.000000
vt 0.615741 0.000000
vt 0.726852 0.000000
vt 0.532407 0.000000
vt 0.532407 0.000000
vt 0.500000 0.000000
vt 0.500000 0.000000
vt 0.750000 0.000000
vt 0.750000 0.000000
vt 0.726852 0.000000
vt 0.726852 0.000000
vt 0.699074 0.000000
vt 0.699074 0.000000
vt 0.671296 0.000000
vt 0.671296 0.000000
vt 0.643519 0.000000
vt 0.643519 0.000000
vt 0.615741 0.000000
vt 0.615741 0.000000
vt 0.587963 0.000000
vt 0.587963 0.000000
vt 0.560185 0.000000
vt 0.560185 0.000000
vt 0.671296 0.000000
vt 0.699074 0.000000
vt 0.726852 0.000000
vt 0.750000 0.000000
vt 0.615741 0.000000
vt 0.643519 0.000000
vt 0.625000 0.000000
vt 0.593750 0.000000
vt 0.562500 0.000000
vt 0.531250 0.000000
vt 0.532407 0.000000
vt 0.500000 0.000000
vt 0.500000 0.000000
vt 0.532407 0.000000
vt 0.726852 0.000000
vt 0.726852 0.000000
vt 0.699074 0.000000
vt 0.699074 0.000000
vt 0.671296 0.000000
vt 0.671296 0.000000
vt 0.643519 0.000000
vt 0.643519 0.000000
vt 0.615741 0.000000
vt 0.615741 0.000000
vt 0.587963 0.000000
vt 0.587963 0.000000
vt 0.560185 0.000000
vt 0.560185 0.000000
vt 0.671296 0.000000
vt 0.699074 0.000000
vt 0.726852 0.000000
vt 0.643519 0.000000
vt 0.615741 0.000000
vt 0.625000 0.000000
vt 0.593750 0.000000
vt 0.562500 0.000000
vt 0.531250 0.000000
vn 1.0000 0.0000 -0.0000
vn 0.0000 -1.0000 0.0000
vn 1.0000 0.0002 -0.0002
vn -0.0000 1.0000 -0.0000
vn 0.0000 0.0000 -1.0000
vn 0.0000 -0.2221 -0.9750
vn 0.0000 -0.4833 -0.8755
vn 0.0000 -0.8668 -0.4987
vn -0.0000 -0.9791 -0.2033
vn 1.0000 0.0000 0.0002
vn -0.0000 -0.9999 -0.0167
vn 1.0000 0.0002 0.0002
vn -0.0000 -0.0000 1.0000
vn -0.0000 -0.2221 0.9750
vn -0.0000 -0.4833 0.8755
vn -0.0000 -0.8668 0.4987
vn -0.0000 -0.9791 0.2033
vn 1.0000 0.0000 -0.0002
vn -0.0000 -0.9999 0.0167
vn -1.0000 -0.0000 0.0000
vn -1.0000 0.0002 -0.0002
vn -1.0000 -0.0000 0.0002
vn -1.0000 0.0002 0.0002
vn -1.0000 0.0000 -0.0002
usemtl None
s off
f 20/1/1 9/2/1 10/3/1 28/4/1
f 11/5/1 13/6/1 21/7/1 12/8/1
f 13/6/1 14/9/1 22/10/1 21/7/1
f 14/9/1 15/11/1 23/12/1 22/10/1
f 15/11/1 16/13/1 24/14/1 23/12/1
f 16/13/1 17/15/1 25/16/1 24/14/1
f 17/15/1 18/17/1 26/18/1 25/16/1
f 18/17/1 19/19/1 27/20/1 26/18/1
f 19/19/1 20/1/1 28/4/1 27/20/1
f 1/21/2 2/22/2 31/23/2 32/24/2
f 14/9/1 13/6/1 3/25/1 2/22/1
f 13/6/1 11/5/1 4/26/1 3/25/1
f 17/15/1 16/13/1 48/27/1 49/28/1
f 5/29/3 6/30/3 17/15/3
f 7/31/1 18/17/1 17/15/1 6/30/1
f 8/32/1 19/19/1 18/17/1 7/31/1
f 19/19/1 8/32/1 20/1/1
f 9/2/1 20/1/1 8/32/1
f 27/20/4 28/4/4 47/33/4 46/34/4
f 26/18/4 27/20/4 46/34/4 45/35/4
f 25/16/4 26/18/4 45/35/4 44/36/4
f 24/14/4 25/16/4 44/36/4 43/37/4
f 23/12/4 24/14/4 43/37/4 42/38/4
f 22/10/4 23/12/4 42/38/4 41/39/4
f 21/7/4 22/10/4 41/39/4 40/40/4
f 12/8/4 21/7/4 40/40/4 39/41/4
f 9/2/5 37/42/5 38/43/5 10/3/5
f 28/4/4 10/3/4 38/43/4 47/33/4
f 8/32/6 36/44/6 37/42/6 9/2/6
f 7/31/7 35/45/7 36/44/7 8/32/7
f 6/30/8 34/46/8 35/45/8 7/31/8
f 5/29/9 33/47/9 34/46/9 6/30/9
f 15/11/1 14/9/1 2/22/1 1/21/1
f 16/13/1 15/11/1 1/21/1 48/27/1
f 5/29/10 17/15/10 49/28/10
f 48/27/2 1/21/2 32/24/2 50/48/2
f 5/29/11 49/28/11 51/49/11 33/50/11
f 2/22/2 3/25/2 30/51/2 31/23/2
f 3/25/2 4/26/2 29/52/2 30/51/2
f 49/28/2 48/27/2 50/48/2 51/49/2
f 68/53/1 76/54/1 60/55/1 59/56/1
f 11/5/1 12/8/1 69/57/1 61/58/1
f 61/58/1 69/57/1 70/59/1 62/60/1
f 62/60/1 70/59/1 71/61/1 63/62/1
f 63/62/1 71/61/1 72/63/1 64/64/1
f 64/64/1 72/63/1 73/65/1 65/66/1
f 65/66/1 73/65/1 74/67/1 66/68/1
f 66/68/1 74/67/1 75/69/1 67/70/1
f 67/70/1 75/69/1 76/54/1 68/53/1
f 52/71/2 79/72/2 78/73/2 53/74/2
f 62/60/1 53/74/1 54/75/1 61/58/1
f 61/58/1 54/75/1 4/26/1 11/5/1
f 65/66/1 95/76/1 94/77/1 64/64/1
f 55/78/12 65/66/12 56/79/12
f 57/80/1 56/79/1 65/66/1 66/68/1
f 58/81/1 57/80/1 66/68/1 67/70/1
f 67/70/1 68/53/1 58/81/1
f 59/56/1 58/81/1 68/53/1
f 75/69/4 92/82/4 93/83/4 76/54/4
f 74/67/4 91/84/4 92/82/4 75/69/4
f 73/65/4 90/85/4 91/84/4 74/67/4
f 72/63/4 89/86/4 90/85/4 73/65/4
f 71/61/4 88/87/4 89/86/4 72/63/4
f 70/59/4 87/88/4 88/87/4 71/61/4
f 69/57/4 86/89/4 87/88/4 70/59/4
f 12/8/4 39/41/4 86/89/4 69/57/4
f 59/56/13 60/55/13 85/90/13 84/91/13
f 76/54/4 93/83/4 85/90/4 60/55/4
f 58/81/14 59/56/14 84/91/14 83/92/14
f 57/80/15 58/81/15 83/92/15 82/93/15
f 56/79/16 57/80/16 82/93/16 81/94/16
f 55/78/17 56/79/17 81/94/17 80/95/17
f 63/62/1 52/71/1 53/74/1 62/60/1
f 64/64/1 94/77/1 52/71/1 63/62/1
f 55/78/18 95/76/18 65/66/18
f 94/77/2 96/96/2 79/72/2 52/71/2
f 55/78/19 80/97/19 97/98/19 95/76/19
f 53/74/2 78/73/2 77/99/2 54/75/2
f 54/75/2 77/99/2 29/52/2 4/26/2
f 95/76/2 97/98/2 96/96/2 94/77/2
f 117/100/20 125/101/20 107/102/20 106/103/20
f 108/104/20 109/105/20 118/106/20 110/107/20
f 110/107/20 118/106/20 119/108/20 111/109/20
f 111/109/20 119/108/20 120/110/20 112/111/20
f 112/111/20 120/110/20 121/112/20 113/113/20
f 113/113/20 121/112/20 122/114/20 114/115/20
f 114/115/20 122/114/20 123/116/20 115/117/20
f 115/117/20 123/116/20 124/118/20 116/119/20
f 116/119/20 124/118/20 125/101/20 117/100/20
f 98/120/2 32/24/2 31/23/2 99/121/2
f 111/109/20 99/121/20 100/122/20 110/107/20
f 110/107/20 100/122/20 101/123/20 108/104/20
f 114/115/20 127/124/20 126/125/20 113/113/20
f 102/126/21 114/115/21 103/127/21
f 104/128/20 103/127/20 114/115/20 115/117/20
f 105/129/20 104/128/20 115/117/20 116/119/20
f 116/119/20 117/100/20 105/129/20
f 106/103/20 105/129/20 117/100/20
f 124/118/4 46/34/4 47/33/4 125/101/4
f 123/116/4 45/35/4 46/34/4 124/118/4
f 122/114/4 44/36/4 45/35/4 123/116/4
f 121/112/4 43/37/4 44/36/4 122/114/4
f 120/110/4 42/38/4 43/37/4 121/112/4
f 119/108/4 41/39/4 42/38/4 120/110/4
f 118/106/4 40/40/4 41/39/4 119/108/4
f 109/105/4 39/41/4 40/40/4 118/106/4
f 106/103/5 107/102/5 38/43/5 37/42/5
f 125/101/4 47/33/4 38/43/4 107/102/4
f 105/129/6 106/103/6 37/42/6 36/44/6
f 104/128/7 105/129/7 36/44/7 35/45/7
f 103/127/8 104/128/8 35/45/8 34/46/8
f 102/126/9 103/127/9 34/46/9 33/47/9
f 112/111/20 98/120/20 99/121/20 111/109/20
f 113/113/20 126/125/20 98/120/20 112/111/20
f 102/126/22 127/124/22 114/115/22
f 126/125/2 50/48/2 32/24/2 98/120/2
f 102/126/11 33/50/11 51/49/11 127/124/11
f 99/121/2 31/23/2 30/51/2 100/122/2
f 100/122/2 30/51/2 29/52/2 101/123/2
f 127/124/2 51/49/2 50/48/2 126/125/2
f 144/130/20 135/131/20 136/132/20 152/133/20
f 108/104/20 137/134/20 145/135/20 109/105/20
f 137/134/20 138/136/20 146/137/20 145/135/20
f 138/136/20 139/138/20 147/139/20 146/137/20
f 139/138/20 140/140/20 148/141/20 147/139/20
f 140/140/20 141/142/20 149/143/20 148/141/20
f 141/142/20 142/144/20 150/145/20 149/143/20
f 142/144/20 143/146/20 151/147/20 150/145/20
f 143/146/20 144/130/20 152/133/20 151/147/20
f 128/148/2 129/149/2 78/73/2 79/72/2
f 138/136/20 137/134/20 130/150/20 129/149/20
f 137/134/20 108/104/20 101/123/20 130/150/20
f 141/142/20 140/140/20 153/151/20 154/152/20
f 131/153/23 132/154/23 141/142/23
f 133/155/20 142/144/20 141/142/20 132/154/20
f 134/156/20 143/146/20 142/144/20 133/155/20
f 143/146/20 134/156/20 144/130/20
f 135/131/20 144/130/20 134/156/20
f 151/147/4 152/133/4 93/83/4 92/82/4
f 150/145/4 151/147/4 92/82/4 91/84/4
f 149/143/4 150/145/4 91/84/4 90/85/4
f 148/141/4 149/143/4 90/85/4 89/86/4
f 147/139/4 148/141/4 89/86/4 88/87/4
f 146/137/4 147/139/4 88/87/4 87/88/4
f 145/135/4 146/137/4 87/88/4 86/89/4
f 109/105/4 145/135/4 86/89/4 39/41/4
f 135/131/13 84/91/13 85/90/13 136/132/13
f 152/133/4 136/132/4 85/90/4 93/83/4
f 134/156/14 83/92/14 84/91/14 135/131/14
f 133/155/15 82/93/15 83/92/15 134/156/15
f 132/154/16 81/94/16 82/93/16 133/155/16
f 131/153/17 80/95/17 81/94/17 132/154/17
f 139/138/20 138/136/20 129/149/20 128/148/20
f 140/140/20 139/138/20 128/148/20 153/151/20
f 131/153/24 141/142/24 154/152/24
f 153/151/2 128/148/2 79/72/2 96/96/2
f 131/153/19 154/152/19 97/98/19 80/97/19
f 129/149/2 130/150/2 77/99/2 78/73/2
f 130/150/2 101/123/2 29/52/2 77/99/2
f 154/152/2 153/151/2 96/96/2 97/98/2
